<svg xmlns="http://www.w3.org/2000/svg" xmlns:xlink="http://www.w3.org/1999/xlink" fill="#007fba" viewBox="0 0 1280 412"><g><path fill="#fff" d="M0-3031h1280V473H0z"/><mask id="a" width="1294" height="472" x="1" y="0" maskUnits="userSpaceOnUse"><path fill="#007fba" fill-rule="evenodd" d="M0 0h1294v472H0V0z" clip-rule="evenodd" transform="translate(1)"/></mask><g mask="url(#a)"><path fill="url(#pattern0)" d="M0 0h860v874H0z" opacity=".2" transform="rotate(-180 319.5 437)"/><mask id="b" width="860" height="874" x="-221" y="0" maskUnits="userSpaceOnUse"><path fill="url(#pattern1)" d="M0 0h860v874H0z" opacity=".2" transform="rotate(-180 319.5 437)"/></mask><g mask="url(#b)"><path fill="#007FBA" d="M639 874h-860V0h860z" opacity=".2"/></g><path fill="url(#pattern2)" d="M0 0h860v874H0z" opacity=".2" transform="matrix(1 0 0 -1 640 874)"/><mask id="c" width="860" height="874" x="640" y="0" maskUnits="userSpaceOnUse"><path fill="url(#pattern3)" d="M0 0h860v874H0z" opacity=".2" transform="matrix(1 0 0 -1 640 874)"/></mask><g mask="url(#c)"><path fill="#007FBA" d="M640 874h860V0H640z" opacity=".2"/></g></g></g><defs><pattern id="pattern0" width="1" height="1" patternContentUnits="objectBoundingBox"><use transform="scale(.00058)" xlink:href="#image0"/></pattern><pattern id="pattern1" width="1" height="1" patternContentUnits="objectBoundingBox"><use transform="scale(.00058)" xlink:href="#image0"/></pattern><pattern id="pattern2" width="1" height="1" patternContentUnits="objectBoundingBox"><use transform="scale(.00058)" xlink:href="#image0"/></pattern><pattern id="pattern3" width="1" height="1" patternContentUnits="objectBoundingBox"><use transform="scale(.00058)" xlink:href="#image0"/></pattern><clipPath id="clip0"><path fill="#007fba" d="M0 0h1280v3504H0z" transform="translate(0 -3031)"/></clipPath></defs></svg>