<svg xmlns="http://www.w3.org/2000/svg" xmlns:xlink="http://www.w3.org/1999/xlink" fill="#007fba" viewBox="0 0 1280 412"><path fill="#fff" d="M0-3031h1280V473H0z"/><mask id="a" width="1294" height="472" x="1" y="0" maskUnits="userSpaceOnUse"><path fill-rule="evenodd" d="M0 0h1294v472H0V0z" clip-rule="evenodd" transform="translate(1)"/></mask><g mask="url(#a)"><path fill="url(#b)" d="M0 0h860v874H0z" opacity=".2" transform="rotate(-180 319.5 437)"/><mask id="d" width="860" height="874" x="-221" y="0" maskUnits="userSpaceOnUse"><path fill="url(#c)" d="M0 0h860v874H0z" opacity=".2" transform="rotate(-180 319.5 437)"/></mask><g mask="url(#d)"><path fill="#007FBA" d="M639 874h-860V0h860z" opacity=".2"/></g><path fill="url(#e)" d="M0 0h860v874H0z" opacity=".2" transform="matrix(1 0 0 -1 640 874)"/><mask id="g" width="860" height="874" x="640" y="0" maskUnits="userSpaceOnUse"><path fill="url(#f)" d="M0 0h860v874H0z" opacity=".2" transform="matrix(1 0 0 -1 640 874)"/></mask><g mask="url(#g)"><path fill="#007FBA" d="M640 874h860V0H640z" opacity=".2"/></g></g><defs><pattern id="b" width="1" height="1" patternContentUnits="objectBoundingBox"><use transform="scale(.00058)" xlink:href="#image0"/></pattern><pattern id="c" width="1" height="1" patternContentUnits="objectBoundingBox"><use transform="scale(.00058)" xlink:href="#image0"/></pattern><pattern id="e" width="1" height="1" patternContentUnits="objectBoundingBox"><use transform="scale(.00058)" xlink:href="#image0"/></pattern><pattern id="f" width="1" height="1" patternContentUnits="objectBoundingBox"><use transform="scale(.00058)" xlink:href="#image0"/></pattern></defs></svg>