<svg xmlns="http://www.w3.org/2000/svg" fill-rule="evenodd" stroke-linejoin="round" stroke-miterlimit="1.414" clip-rule="evenodd" viewBox="0 0 1948 432"><path fill="#5caad3" fill-rule="nonzero" d="M252 0L0 432h72l180-306 35.397 60.176L324 123.429 252 0z"/><clipPath id="a"><path d="M324 185.141h108V0H324v185.141z" clip-rule="nonzero"/></clipPath><g clip-path="url(#a)"><path fill="#5caad3" fill-rule="nonzero" d="M432 61.71L396 0l-72 123.429 35.999 61.713L432 61.71z"/></g><path fill="#1785be" fill-rule="nonzero" d="M648 432c-44.61 0-85.888-23.608-108.506-62.06L432 187.2l36-61.2 180 306zm-144 0c-44.601 0-85.88-23.6-108.5-62.06L360 309.6l-36.46-61.96-70.761 121.3 71.221.04v1.82L288 432H144l143.399-245.82L324 123.43l36 61.71 36.449 62.49L504 432z"/><g fill="#1785be"><path fill-rule="nonzero" d="M748.091 315.917V116.006l83.296 74.966 83.296-74.966v199.911h-33.318v-129.11l-49.978 45.812-49.978-45.812v129.11h-33.318zm199.91-199.912v199.912h99.956v-33.32h-66.638v-49.976h49.98v-33.318h-49.98v-49.978h66.638v-33.32h-99.956zm133.279 0v199.912h99.956v-33.32h-66.638V116.005h-33.318z"/><path d="M1214.55 116.006h33.32v199.911h-33.32z"/><path fill-rule="nonzero" d="M1602.99 233.366c23.202-10.871 34.81-29.656 34.81-56.364 0-20.603-6.09-35.908-18.263-45.923-12.174-10.015-29.1-15.022-50.786-15.022h-31.455v-.05h-33.318v199.909l33.318.032v-175.57h31.168c13.503 0 23.725 3.195 30.672 9.587 6.941 6.392 10.416 15.405 10.416 27.037 0 11.633-3.521 20.696-10.555 27.18-7.045 6.486-17.221 9.725-30.533 9.725h-5.775l11.452 24.32h.03l14.759 31.405 25.615 46.284h33.097l-44.652-82.55zm93.38 66.471c0 8.927-7.236 16.162-16.161 16.162-8.928 0-16.163-7.235-16.163-16.162 0-8.925 7.235-16.16 16.163-16.16 8.925 0 16.161 7.235 16.161 16.16m-266.32-48.215c-4.588 10.233-11.527 18.394-20.65 24.297-9.143 5.884-20.375 8.882-33.477 8.882-13.081 0-24.35-2.998-33.456-8.882-9.159-5.903-16.098-14.064-20.65-24.297-4.684-10.4-7.013-22.373-7.013-35.659 0-13.268 2.329-25.241 7.013-35.622 4.552-10.233 11.491-18.412 20.65-24.315 9.106-5.885 20.375-8.864 33.456-8.864 13.066 0 24.334 2.979 33.477 8.864 9.123 5.903 16.062 14.082 20.65 24.315 4.646 10.381 7.013 22.391 7.013 35.622 0 13.286-2.367 25.259-7.013 35.659m28.59-87.954c-8.048-15.1-19.391-26.887-33.733-35.103-14.341-8.235-30.812-12.38-48.984-12.38-18.19 0-34.657 4.145-48.964 12.38-14.341 8.216-25.719 20.003-33.732 35.103-8.014 14.971-12.085 32.587-12.085 52.295 0 19.726 4.071 37.343 12.085 52.352 8.013 15.043 19.391 26.867 33.732 35.102 14.307 8.197 30.774 12.342 48.964 12.342 18.172 0 34.643-4.145 48.984-12.342 14.342-8.235 25.685-20.059 33.733-35.102 7.996-15.009 12.046-32.626 12.046-52.352 0-19.708-4.05-37.324-12.046-52.295m422.28 152.258a49.69 49.69 0 0 1-12.12-1.517 49.832 49.832 0 0 1-15.489-6.958 49.11 49.11 0 0 1-17.304-20.615c-.275-.61-.553-1.221-.794-1.85l-1.998-5.015-16.025-40.063-19.58-48.927-38.34 95.855h38.34v.074L1785.491 316h-71.188l83.307-200 35.605 85.437 16.025 38.453 19.56 46.946 12.12 29.09zm66.28-99.957v99.941h-33.327V199.361l.039-16.645v-16.012c0-1.04 0-2.076.074-3.151a53.516 53.516 0 0 1 8.747-27.173c5.746-8.823 14.088-15.979 24.28-20.203l.148 79.811.039 19.981z"/></g></svg>