<svg xmlns="http://www.w3.org/2000/svg"><symbol id="sprite_book" viewBox="0 0 48 42"><g fill-rule="evenodd" stroke="#F42C6E" stroke-linecap="round" stroke-linejoin="round" stroke-width="1.5"><path d="M42.708 8h1.726C45.845 8 47 9.15 47 10.553V36.45c0 1.402-1.155 2.55-2.566 2.55H3.564A2.565 2.565 0 0 1 1 36.45V10.553A2.566 2.566 0 0 1 3.564 8h1.729"/><path d="M24 7.972S17.495 1 5 1v31.028C17.495 32.028 24 39 24 39m0-31.028S30.504 1 43 1v31.028C30.504 32.028 24 39 24 39m4-27c2.372-1.184 5.718-2.426 10-3M28 20c2.372-1.185 5.718-2.428 10-3M28 28c2.372-1.184 5.718-2.427 10-3M20 12c-2.372-1.184-5.718-2.426-10-3m10 11c-2.372-1.185-5.718-2.428-10-3m10 11c-2.372-1.184-5.718-2.427-10-3M24 8v30m2 2c0 .55-.584 1-1.299 1H23.3C22.584 41 22 40.55 22 40s.584-1 1.299-1H24.7c.715 0 1.299.45 1.299 1z"/></g></symbol><symbol id="sprite_bubble" viewBox="0 0 24 24"><path d="M16.5 0h-9C3.375 0 0 3.375 0 7.5v3C0 14.625 3.375 18 7.5 18v6l7.5-6h1.5c4.125 0 7.5-3.375 7.5-7.5v-3C24 3.375 20.625 0 16.5 0zM6 10.875A1.877 1.877 0 0 1 4.125 9 1.875 1.875 0 1 1 6 10.875zm6 0A1.877 1.877 0 0 1 10.125 9 1.875 1.875 0 1 1 12 10.875zm6 0A1.877 1.877 0 0 1 16.125 9 1.875 1.875 0 1 1 18 10.875z"/></symbol><symbol id="sprite_car" viewBox="0 0 71 44"><g fill-rule="evenodd" stroke="#F42C6E" stroke-linecap="round" stroke-linejoin="round" stroke-width="1.5"><path d="M9 38h8m43.718 0h6.85C68.912 38 70 36.923 70 35.595V25.11c0-1.731-1.42-3.135-3.17-3.135H42.48V1H16m11 37h22"/><path d="M43 7h11.925L66 22M27 38c0-2.76-2.24-5-5-5s-5 2.24-5 5 2.24 5 5 5 5-2.24 5-5zm33 0c0-2.76-2.24-5-5-5s-5 2.24-5 5 2.24 5 5 5 5-2.24 5-5zM28 9H10m14 10H6m13 9H1"/></g></symbol><symbol id="sprite_cart" viewBox="0 0 24 24"><path d="M17.711 23.615a2.952 2.952 0 1 1 0-5.904 2.952 2.952 0 0 1 0 5.904zm-7.38 0a2.952 2.952 0 1 1 0-5.904 2.952 2.952 0 0 1 0 5.904zM23.338 5.042c.278.384.353.88.203 1.328l-2.952 8.856a1.475 1.475 0 0 1-1.4 1.01H8.855a1.478 1.478 0 0 1-1.403-1.01L3.363 2.952H1.477C.66 2.952 0 2.292 0 1.476S.66 0 1.476 0h2.952a1.47 1.47 0 0 1 1.398 1.01l1.142 3.418h15.171c.475 0 .92.227 1.198.614z"/></symbol><symbol id="sprite_fb" viewBox="0 0 30 30"><path fill-rule="evenodd" d="M0 15C0 6.716 6.716 0 15 0c8.284 0 15 6.716 15 15 0 8.284-6.716 15-15 15-8.284 0-15-6.716-15-15zm16.299-4.634h2.254v-2.47H16.3c-1.866 0-3.226 1.592-3.226 3.55v1.367H10.66v2.321h2.414v6.97h2.661v-6.97h2.394l.427-2.322h-2.82v-1.628c0-.467.296-.818.564-.818z" clip-rule="evenodd"/></symbol><symbol id="sprite_graph" viewBox="0 0 50 52"><g fill-rule="evenodd" stroke="#F42C6E" stroke-linecap="round" stroke-linejoin="round" stroke-width="1.5"><path d="M1 50.293h7.713v-14.57H1zm14 .207h7.713V23.723H15zm13-.249h7.713V29.723H28zm13-.254h7.713V21.723H41zM5 22.16L19.476 7.073l11.153 7.692L44.443 1.723"/><path d="M37 1.723h7.944V9.79"/></g></symbol><symbol id="sprite_heart" viewBox="0 0 52 42"><g fill-rule="evenodd" stroke="#F42C6E" stroke-linecap="round" stroke-linejoin="round" stroke-width="1.5"><path d="M50.246 16.142c1.053-4.123-.17-8.634-3.67-11.85-4.786-4.39-12.54-4.39-17.326 0l-3.249 2.983-3.252-2.982c-4.783-4.39-12.54-4.39-17.323 0-4.949 4.54-5.349 11.675-1.2 16.636m4.162 3.527l18.02 16.54 20.576-18.884"/><path d="M1.388 21.465h16.536l5.384 6.353L29.461 15l4.103 6.465h17.048"/></g></symbol><symbol id="sprite_in" viewBox="0 0 14 14"><path d="M3.111 1.556c0 .855-.544 1.555-1.555 1.555C.622 3.111 0 2.411 0 1.633 0 .778.622 0 1.556 0 2.489 0 3.11.7 3.11 1.556zM0 14h3.111V3.889H0V14zm10.578-9.956c-1.634 0-2.567.934-2.956 1.556h-.078L7.39 4.278h-2.8c0 .855.078 1.866.078 3.033V14h3.11V8.478c0-.311 0-.545.079-.778.233-.544.622-1.244 1.477-1.244 1.09 0 1.556.933 1.556 2.177V14H14V8.244c0-2.877-1.478-4.2-3.422-4.2z"/></symbol><symbol id="sprite_lens" viewBox="0 0 20 20"><path fill-rule="evenodd" d="M16.509 9.741l3.125 3.125a1.25 1.25 0 1 1-1.768 1.768l-3.125-3.125c-.008-.008-.012-.017-.018-.027l-.018-.027A6.226 6.226 0 0 1 11.25 12.5a6.25 6.25 0 1 1 6.25-6.25 6.229 6.229 0 0 1-1.045 3.455c.008.007.017.012.026.017.01.005.019.01.028.02zM7.5 6.25C7.5 8.317 9.183 10 11.25 10S15 8.317 15 6.25 13.317 2.5 11.25 2.5 7.5 4.183 7.5 6.25z" clip-rule="evenodd"/><path fill-rule="evenodd" d="M3.125 12.5h3.988a7.46 7.46 0 0 0 4.137 1.25c.423 0 .839-.048 1.25-.116V20H0V3.75h4.188a7.444 7.444 0 0 0-.438 2.5c0 .426.044.843.113 1.25h-.738a.625.625 0 0 0 0 1.25h1.063c.33.933.84 1.778 1.488 2.5H3.125a.625.625 0 0 0 0 1.25zm0 3.75h6.25a.625.625 0 0 0 0-1.25h-6.25a.625.625 0 0 0 0 1.25z" clip-rule="evenodd"/></symbol><symbol id="sprite_like" viewBox="0 0 18 18"><path fill-rule="evenodd" d="M18 6.97v.677c0 .476-.259.874-.63 1.113.371.24.63.638.63 1.114v.677c0 .667-.49 1.197-1.125 1.303v1.431c0 .666-.493 1.192-1.125 1.296v.948a1.34 1.34 0 0 1-1.337 1.346H7.875c-1.215-.062-2.514-.612-3.375-1.408v-9.07c1.312-1.81 1.125-4.71 1.125-4.71a1.688 1.688 0 0 1 3.375 0v3.938h7.663c.74 0 1.337.603 1.337 1.345zM3.375 6.75H0V18h3.375V6.75z" clip-rule="evenodd"/></symbol><symbol id="sprite_logo" viewBox="0 0 370 247"><g><path fill-opacity=".8" d="M144.091 0L.451 246.24h41.04l102.6-174.42 20.177 34.3 20.863-35.765zm102.6 35.175L226.171 0l-41.04 70.355 20.52 35.176 41.04-70.356z" opacity=".7"/><path d="M369.811 246.24a71.754 71.754 0 0 1-61.848-35.374l-61.272-104.162 20.52-34.884 102.6 174.42zm-82.08 0a71.746 71.746 0 0 1-61.845-35.374l-20.235-34.394-20.782-35.317-40.334 69.14 40.596.024v1.037l-20.52 34.884h-82.08l81.738-140.117 20.862-35.768 20.52 35.175 20.776 35.62 61.304 105.09z"/></g></symbol><symbol id="sprite_robot" viewBox="0 0 18 20"><path d="M16.714 15H1.286C.579 15 0 15.563 0 16.25v2.5C0 19.438.579 20 1.286 20h15.428c.707 0 1.286-.563 1.286-1.25v-2.5c0-.688-.579-1.25-1.286-1.25z"/><path fill-rule="evenodd" d="M16.715 11.25c0-3.931-3.113-7.15-7.071-7.469V2.31c.377-.219.642-.601.642-1.059C10.286.56 9.71 0 9 0c-.709 0-1.285.56-1.285 1.25 0 .458.265.84.642 1.059V3.78c-3.959.318-7.07 3.538-7.07 7.469v2.5h15.428v-2.5zm-10.929.313C4.9 11.563 4.18 10.86 4.18 10S4.9 8.437 5.786 8.437c.888 0 1.607.702 1.607 1.563s-.72 1.563-1.607 1.563zM10.607 10c0 .861.722 1.563 1.608 1.563.888 0 1.606-.702 1.606-1.563s-.718-1.563-1.606-1.563c-.886 0-1.608.702-1.608 1.563z" clip-rule="evenodd"/></symbol><symbol id="sprite_router" viewBox="0 0 51 42"><g fill-rule="evenodd" stroke="#F42C6E" stroke-linecap="round" stroke-linejoin="round" stroke-width="1.5"><path d="M37.625 12.49a1.491 1.491 0 1 0 2.982-.002 1.491 1.491 0 0 0-2.982.002z"/><path d="M28.3 12.352C28.3 6.286 33.127 1.37 39.08 1.37s10.778 4.917 10.778 10.983"/><path d="M32.738 12.575c0-3.518 2.798-6.369 6.25-6.369 3.453 0 6.253 2.85 6.253 6.37M39 14v9.962m5.554 14.443H4.956C2.77 38.405 1 36.75 1 34.707v-6.955c0-2.042 1.77-3.699 3.956-3.699h39.598c2.184 0 3.956 1.657 3.956 3.699v6.955c0 2.042-1.772 3.698-3.956 3.698zM29 24.053v14.352M6 32.053h1.066m4.934 0h1.066m3.934 0h1.066M7 39.053V41m36-1.947V41"/></g></symbol><symbol id="sprite_star" viewBox="0 0 22 22"><path d="M21.678 9.175c.56-.573.37-1.143-.425-1.264L14.615 6.9 11.623.544c-.341-.725-.9-.725-1.242 0L7.386 6.9.746 7.911c-.794.121-.985.69-.424 1.264l4.829 4.932-1.146 6.997c-.13.79.341 1.12 1.045.733l4.672-2.574c.703-.386 1.855-.386 2.557 0l4.672 2.574c.704.388 1.174.058 1.043-.733l-.003-.02-1.144-6.977 4.83-4.932z"/></symbol><symbol id="sprite_street" viewBox="0 0 57 57"><path d="M1 56h54.976M41.601 46h10.37M41.6 35h10.37M41.6 24h10.37M41.6 13h10.37m.184 42.815V1H41v54.75M18 23.534V22m5 1.534V22m-5 7.535V28m5 1.535V28m-5 8.535V35m5 1.535V35m-5 7.534V41m5 1.534V41m-5 7.534V47m5 1.534V47m4.067 8.216V17.724L14 9v46.161m-7 .233V51m4.115-.839H3L7.058 37zM34 55.394V51m4.115-.838H30L34.058 37z" fill-rule="evenodd" stroke="#F42C6E" stroke-linecap="round" stroke-linejoin="round" stroke-width="1.5"/></symbol><symbol id="sprite_telegram"><path d="M15 30C6.716 30 0 23.284 0 15 0 6.716 6.716 0 15 0c8.284 0 15 6.716 15 15 0 8.284-6.716 15-15 15zm7.43-20.937a1.167 1.167 0 0 0-1.492-1.494L6.772 12.672a1.167 1.167 0 0 0-.076 2.166l5.872 2.594 2.595 5.872a1.167 1.167 0 0 0 2.165-.076L22.43 9.063z"/></symbol><symbol id="sprite_tw" viewBox="0 0 30 30"><path fill-rule="evenodd" d="M0 15C0 6.716 6.716 0 15 0c8.284 0 15 6.716 15 15 0 8.284-6.716 15-15 15-8.284 0-15-6.716-15-15zm21.11-2.331c0-.125-.002-.254-.008-.382a5.993 5.993 0 0 0 1.473-1.53 5.933 5.933 0 0 1-1.697.468 2.968 2.968 0 0 0 1.299-1.636 5.936 5.936 0 0 1-1.875.717 2.955 2.955 0 0 0-5.034 2.695 8.4 8.4 0 0 1-6.09-3.089 2.94 2.94 0 0 0-.4 1.486c0 1.027.52 1.93 1.314 2.461a2.963 2.963 0 0 1-1.339-.37v.036a2.957 2.957 0 0 0 2.37 2.897 2.971 2.971 0 0 1-1.332.051 2.96 2.96 0 0 0 2.759 2.05 5.917 5.917 0 0 1-3.669 1.264 5.62 5.62 0 0 1-.704-.039 8.335 8.335 0 0 0 4.528 1.328c5.434 0 8.404-4.501 8.404-8.407z" clip-rule="evenodd"/></symbol></svg>