<svg xmlns="http://www.w3.org/2000/svg"><symbol id="sprite_bubble" viewBox="0 0 24 24"><path d="M16.5 0h-9C3.375 0 0 3.375 0 7.5v3C0 14.625 3.375 18 7.5 18v6l7.5-6h1.5c4.125 0 7.5-3.375 7.5-7.5v-3C24 3.375 20.625 0 16.5 0zM6 10.875A1.877 1.877 0 0 1 4.125 9 1.875 1.875 0 1 1 6 10.875zm6 0A1.877 1.877 0 0 1 10.125 9 1.875 1.875 0 1 1 12 10.875zm6 0A1.877 1.877 0 0 1 16.125 9 1.875 1.875 0 1 1 18 10.875z"/></symbol><symbol id="sprite_cart" viewBox="0 0 24 24"><path d="M17.711 23.615a2.952 2.952 0 1 1 0-5.904 2.952 2.952 0 0 1 0 5.904zm-7.38 0a2.952 2.952 0 1 1 0-5.904 2.952 2.952 0 0 1 0 5.904zM23.338 5.042c.278.384.353.88.203 1.328l-2.952 8.856a1.475 1.475 0 0 1-1.4 1.01H8.855a1.478 1.478 0 0 1-1.403-1.01L3.363 2.952H1.477C.66 2.952 0 2.292 0 1.476S.66 0 1.476 0h2.952a1.47 1.47 0 0 1 1.398 1.01l1.142 3.418h15.171c.475 0 .92.227 1.198.614z"/></symbol><symbol id="sprite_fb" viewBox="0 0 30 30"><path fill-rule="evenodd" d="M0 15C0 6.716 6.716 0 15 0c8.284 0 15 6.716 15 15 0 8.284-6.716 15-15 15-8.284 0-15-6.716-15-15zm16.299-4.634h2.254v-2.47H16.3c-1.866 0-3.226 1.592-3.226 3.55v1.367H10.66v2.321h2.414v6.97h2.661v-6.97h2.394l.427-2.322h-2.82v-1.628c0-.467.296-.818.564-.818z" clip-rule="evenodd"/></symbol><symbol id="sprite_in" viewBox="0 0 14 14"><path d="M3.111 1.556c0 .855-.544 1.555-1.555 1.555C.622 3.111 0 2.411 0 1.633 0 .778.622 0 1.556 0 2.489 0 3.11.7 3.11 1.556zM0 14h3.111V3.889H0V14zm10.578-9.956c-1.634 0-2.567.934-2.956 1.556h-.078L7.39 4.278h-2.8c0 .855.078 1.866.078 3.033V14h3.11V8.478c0-.311 0-.545.079-.778.233-.544.622-1.244 1.477-1.244 1.09 0 1.556.933 1.556 2.177V14H14V8.244c0-2.877-1.478-4.2-3.422-4.2z"/></symbol><symbol id="sprite_logo" viewBox="0 0 370 247"><g><path fill-opacity=".8" d="M144.091 0L.451 246.24h41.04l102.6-174.42 20.177 34.3 20.863-35.765zm102.6 35.175L226.171 0l-41.04 70.355 20.52 35.176 41.04-70.356z" opacity=".7"/><path d="M369.811 246.24a71.754 71.754 0 0 1-61.848-35.374l-61.272-104.162 20.52-34.884 102.6 174.42zm-82.08 0a71.746 71.746 0 0 1-61.845-35.374l-20.235-34.394-20.782-35.317-40.334 69.14 40.596.024v1.037l-20.52 34.884h-82.08l81.738-140.117 20.862-35.768 20.52 35.175 20.776 35.62 61.304 105.09z"/></g></symbol><symbol id="sprite_star" viewBox="0 0 22 22"><path d="M21.678 9.175c.56-.573.37-1.143-.425-1.264L14.615 6.9 11.623.544c-.341-.725-.9-.725-1.242 0L7.386 6.9.746 7.911c-.794.121-.985.69-.424 1.264l4.829 4.932-1.146 6.997c-.13.79.341 1.12 1.045.733l4.672-2.574c.703-.386 1.855-.386 2.557 0l4.672 2.574c.704.388 1.174.058 1.043-.733l-.003-.02-1.144-6.977 4.83-4.932z"/></symbol><symbol id="sprite_tw" viewBox="0 0 30 30"><path fill-rule="evenodd" d="M0 15C0 6.716 6.716 0 15 0c8.284 0 15 6.716 15 15 0 8.284-6.716 15-15 15-8.284 0-15-6.716-15-15zm21.11-2.331c0-.125-.002-.254-.008-.382a5.993 5.993 0 0 0 1.473-1.53 5.933 5.933 0 0 1-1.697.468 2.968 2.968 0 0 0 1.299-1.636 5.936 5.936 0 0 1-1.875.717 2.955 2.955 0 0 0-5.034 2.695 8.4 8.4 0 0 1-6.09-3.089 2.94 2.94 0 0 0-.4 1.486c0 1.027.52 1.93 1.314 2.461a2.963 2.963 0 0 1-1.339-.37v.036a2.957 2.957 0 0 0 2.37 2.897 2.971 2.971 0 0 1-1.332.051 2.96 2.96 0 0 0 2.759 2.05 5.917 5.917 0 0 1-3.669 1.264 5.62 5.62 0 0 1-.704-.039 8.335 8.335 0 0 0 4.528 1.328c5.434 0 8.404-4.501 8.404-8.407z" clip-rule="evenodd"/></symbol></svg>